<svg xmlns="http://www.w3.org/2000/svg" viewBox="0 0 800 600">
  <defs>
    <linearGradient id="bg" x1="0" y1="0" x2="0" y2="1">
      <stop offset="0" stop-color="#faf3ea"/>
      <stop offset="1" stop-color="#f1e6d8"/>
    </linearGradient>
  </defs>
  <rect width="800" height="600" fill="url(#bg)"/>
  <g transform="translate(0,30)">
    <ellipse cx="400" cy="420" rx="240" ry="32" fill="rgba(0,0,0,.06)"/>
    <g>
      <rect x="190" y="160" width="360" height="260" rx="26" fill="#fff" stroke="#e7dfd3" stroke-width="8"/>
      <path d="M560,214c54,0,84,74,18,112-15,9-34,14-56,15v-56c24-2,38-8,45-18 13-18-1-37-7-37z" fill="#d3b79a" stroke="#b99b7e" stroke-width="8"/>
      <ellipse cx="370" cy="220" rx="160" ry="56" fill="#ead9c5" stroke="#d3b79a" stroke-width="8"/>
      <ellipse cx="370" cy="220" rx="144" ry="46" fill="#f6efe7"/>
      <path d="M260,220c30-34,70-32,96-16 38,24,76,18,100-10" fill="none" stroke="#e6d7c7" stroke-width="18" stroke-linecap="round"/>
      <path d="M300,232c24-18,48-12,68-2 24,12,50,10,70-4" fill="none" stroke="#e6d7c7" stroke-width="12" stroke-linecap="round"/>
    </g>
  </g>
</svg>

