<svg xmlns="http://www.w3.org/2000/svg" viewBox="0 0 800 600">
  <rect width="800" height="600" fill="#eef7f1"/>
  <g transform="translate(0,24)">
    <ellipse cx="400" cy="430" rx="230" ry="28" fill="rgba(0,0,0,.06)"/>
    <g>
      <rect x="190" y="170" width="360" height="250" rx="24" fill="#ffffff" stroke="#e0efe4" stroke-width="8"/>
      <path d="M560,220c54,0,84,70,18,106-15,8-34,13-56,14v-52c24-2,38-8,45-18 13-16-1-34-7-34z" fill="#9fd0a3" stroke="#7fb484" stroke-width="8"/>
      <ellipse cx="370" cy="230" rx="160" ry="54" fill="#bfe6c1" stroke="#9bcea1" stroke-width="8"/>
      <ellipse cx="370" cy="230" rx="140" ry="44" fill="#e8f7ea"/>
      <path d="M260,238c30-18 60-10 84,0 34,14 76,12 104-8" fill="none" stroke="#cfeede" stroke-width="12" stroke-linecap="round"/>
      <path d="M270,210c20-16 40-24 56-10" fill="none" stroke="#9fd0a3" stroke-width="10" stroke-linecap="round"/>
    </g>
  </g>
</svg>

